<?xml version="1.0" encoding="UTF-8" standalone="no"?>
<svg xmlns="http://www.w3.org/2000/svg" xmlns:xlink="http://www.w3.org/1999/xlink" class="card" face="7D" height="94mm" preserveAspectRatio="none" viewBox="-132 -180 264 360" width="69mm"><defs><symbol id="SD7" viewBox="-600 -600 1200 1200" preserveAspectRatio="xMinYMid"><path d="M-400 0C-350 0 0 -450 0 -500C0 -450 350 0 400 0C350 0 0 450 0 500C0 450 -350 0 -400 0Z" fill="red"></path></symbol><symbol id="VD7" viewBox="-500 -500 1000 1000" preserveAspectRatio="xMinYMid"><path d="M-265 -320L-265 -460L265 -460C135 -200 -90 100 -90 460" stroke="red" stroke-width="80" stroke-linecap="square" stroke-miterlimit="1.5" fill="none"></path></symbol><rect id="XD7" width="160.8" height="256.8" x="-80.4" y="-128.4"></rect></defs><rect x="-240" y="-336" width="480" height="672" fill="white"></rect><rect width="239" height="335" x="-119.5" y="-167.5" rx="12" ry="12" fill="white" stroke="black"></rect><use xlink:href="#XD7" width="160.8" height="256.8" stroke="#88f" fill="#FFC"></use><use xlink:href="#VD7" height="32" width="32" x="-112.4" y="-154"></use><use xlink:href="#SD7" height="26.769" width="26.769" x="-109.784" y="-117"></use><use xlink:href="#SD7" height="65" width="65" x="-86.234" y="-128.817"></use><use xlink:href="#SD7" height="65" width="65" x="21.234" y="-128.817"></use><use xlink:href="#SD7" height="65" width="65" x="-86.234" y="-32.5"></use><use xlink:href="#SD7" height="65" width="65" x="21.234" y="-32.5"></use><use xlink:href="#SD7" height="65" width="65" x="-32.5" y="-80.658"></use><g transform="rotate(180)"><use xlink:href="#VD7" height="32" width="32" x="-112.4" y="-154"></use><use xlink:href="#SD7" height="26.769" width="26.769" x="-109.784" y="-117"></use><use xlink:href="#SD7" height="65" width="65" x="-86.234" y="-128.817"></use><use xlink:href="#SD7" height="65" width="65" x="21.234" y="-128.817"></use></g></svg>